<svg width="633" height="361" viewBox="0 0 633 361" fill="none" xmlns="http://www.w3.org/2000/svg">
<path d="M567.145 218.658C544.515 218.658 526.171 200.312 526.171 177.682C526.171 155.051 544.515 136.707 567.145 136.707C589.776 136.707 608.12 155.051 608.12 177.682C608.12 200.312 589.776 218.658 567.145 218.658ZM567.145 112.494C531.143 112.494 501.956 141.679 501.956 177.682C501.956 213.686 531.143 242.871 567.145 242.871C603.148 242.871 632.335 213.686 632.335 177.682C632.335 141.679 603.148 112.494 567.145 112.494Z" fill="#7B9F2D"/>
<path d="M174.928 242.872H162.06C159.441 242.872 157.318 240.749 157.318 238.13V5.48223C157.318 2.8649 159.441 0.740899 162.06 0.740899H174.928C177.546 0.740899 179.669 2.8649 179.669 5.48223V238.13C179.669 240.749 177.546 242.872 174.928 242.872Z" fill="black"/>
<path d="M102.598 196.131C95.7725 209.644 81.7138 218.875 65.4885 218.655C44.1005 218.365 26.1298 201.027 25.1258 179.66C24.0191 156.131 42.7685 136.707 66.0538 136.707C82.9298 136.707 97.3938 146.92 103.667 161.495C104.951 164.479 107.77 166.507 111.018 166.507H120.051C125.555 166.507 129.32 161.039 127.478 155.852C117.798 128.605 90.5218 109.699 59.3098 112.833C27.9125 115.987 2.95514 142.019 0.995139 173.512C-1.36219 211.404 28.6711 242.872 66.0538 242.872C93.2511 242.872 116.546 226.213 126.318 202.545C128.459 197.357 124.594 191.652 118.982 191.652H109.704C106.668 191.652 103.966 193.423 102.598 196.131Z" fill="#7B9F2D"/>
<path d="M457.463 283.904C450.594 297.289 436.605 306.411 420.474 306.193C399.087 305.904 381.115 288.567 380.11 267.2C379.003 243.669 397.754 224.245 421.039 224.245C437.915 224.245 452.379 234.459 458.653 249.035C459.989 252.137 463.162 254.045 466.541 254.045H474.433C480.23 254.045 484.25 248.265 482.258 242.821C472.402 215.881 445.29 197.26 414.295 200.372C382.899 203.525 357.941 229.556 355.981 261.049C353.622 298.943 383.657 330.411 421.039 330.411C448.014 330.411 471.153 314.021 481.062 290.66C483.371 285.217 479.253 279.191 473.342 279.191H464.953C461.757 279.191 458.923 281.061 457.463 283.904Z" fill="#7B9F2D"/>
<path d="M232.873 166.507C237.742 149.316 253.515 136.707 272.266 136.707C291.017 136.707 306.79 149.316 311.659 166.507H232.873ZM316.502 188.858H328.861C333.363 188.858 337.15 185.36 337.375 180.863C337.743 173.49 336.855 165.784 334.229 157.848C325.587 131.751 301.429 113.206 273.946 112.515C234.557 111.524 202.825 145.482 207.543 185.591C211.07 215.566 235.49 239.516 265.521 242.532C291.198 245.11 314.221 232.772 326.969 213.146C330.665 207.456 326.626 199.927 319.845 199.927H310.978C308.366 199.927 305.926 201.147 304.298 203.191C296.795 212.61 285.245 218.658 272.266 218.658C253.515 218.658 237.742 206.048 232.873 188.858H311.659H316.502Z" fill="#7B9F2D"/>
<path d="M482.21 226.818C480.957 226.818 479.723 226.232 478.943 225.132C477.666 223.33 478.09 220.833 479.893 219.556L497.37 207.165C499.175 205.888 501.669 206.313 502.947 208.114C504.225 209.916 503.799 212.413 501.998 213.69L484.519 226.081C483.817 226.578 483.01 226.818 482.21 226.818Z" fill="black"/>
<path d="M351.357 238.551C350.557 238.551 349.75 238.313 349.048 237.814L331.569 225.423C329.768 224.146 329.342 221.649 330.62 219.847C331.896 218.047 334.392 217.617 336.197 218.898L353.674 231.289C355.477 232.566 355.901 235.063 354.624 236.865C353.844 237.965 352.61 238.551 351.357 238.551Z" fill="black"/>
<path d="M490.877 241.163C489.624 241.163 488.39 240.576 487.61 239.476C486.333 237.675 486.757 235.178 488.56 233.9L506.037 221.51C507.842 220.231 510.337 220.658 511.614 222.459C512.892 224.26 512.466 226.758 510.665 228.035L493.186 240.426C492.484 240.923 491.677 241.163 490.877 241.163Z" fill="black"/>
<path d="M22.3262 304.314L23.1248 300.382C23.4755 300.486 23.8262 300.59 24.2795 300.59C26.0542 300.59 27.2062 298.969 27.6502 295.242C28.3262 289.778 28.9582 284.325 29.5955 278.841H45.1168V304.118H40.8395V282.325H32.9875C32.4395 286.971 31.8915 291.665 31.3062 296.313C30.5862 301.939 28.3408 304.741 24.6222 304.741C23.6835 304.741 23.0382 304.599 22.3262 304.314Z" fill="black"/>
<path d="M67.6035 297.95V290.93C59.1328 291.948 56.2688 294.024 56.2688 297.255C56.2688 300.127 58.2181 301.296 60.6981 301.296C63.1408 301.296 65.1555 300.107 67.6035 297.95V297.95ZM52.0781 297.555C52.0781 292.048 56.8301 289.295 67.6035 288.123C67.5928 284.871 66.5141 281.739 62.3861 281.739C59.4621 281.739 56.8288 283.124 54.8475 284.448L53.1741 281.516C55.4995 279.99 59.0461 278.215 63.1021 278.215C69.2701 278.215 71.8808 282.315 71.8808 288.61V304.118H68.3475L67.9861 301.095H67.8435C65.4355 303.099 62.6208 304.742 59.4848 304.742C55.2541 304.742 52.0781 302.115 52.0781 297.555" fill="black"/>
<path d="M78.373 288.803C78.373 271.695 84.5797 269.031 94.2144 267.585C97.0437 267.168 97.9197 266.885 99.4517 266.157L100.326 270.04C98.9744 270.921 97.229 271.348 95.0997 271.661C85.7504 273.067 82.497 273.789 82.497 289.607C82.497 296.921 85.1197 301.18 90.2557 301.18C94.1597 301.18 96.9744 297.316 96.9744 291.6C96.9744 286.377 94.5517 283.083 90.1717 283.083C87.7104 283.083 85.041 284.205 82.4317 287.739L82.2784 284.528C84.5624 281.412 87.8677 279.771 91.2517 279.771C97.2397 279.771 101.394 284.211 101.394 291.6C101.394 299.635 96.425 304.741 90.2944 304.741C82.725 304.741 78.373 298.989 78.373 288.803Z" fill="black"/>
<path d="M125.29 291.512C125.29 285.719 122.343 281.776 117.995 281.776C113.649 281.776 110.702 285.719 110.702 291.512C110.702 297.304 113.649 301.18 117.995 301.18C122.343 301.18 125.29 297.304 125.29 291.512ZM106.283 291.512C106.283 283.076 111.799 278.215 117.995 278.215C124.193 278.215 129.709 283.076 129.709 291.512C129.709 299.88 124.193 304.742 117.995 304.742C111.799 304.742 106.283 299.88 106.283 291.512Z" fill="black"/>
<path d="M154.058 291.133C154.058 285.555 152.151 281.816 147.394 281.816C145.252 281.816 143.095 282.993 140.638 285.265V298.513C142.924 300.436 145.122 301.143 146.791 301.143C150.974 301.143 154.058 297.376 154.058 291.133ZM136.36 278.84H139.892L140.254 281.759H140.396C142.682 279.859 145.526 278.216 148.455 278.216C154.984 278.216 158.476 283.284 158.476 291.096C158.476 299.712 153.304 304.741 147.53 304.741C145.214 304.741 142.843 303.673 140.522 301.813L140.638 306.225V314.781H136.36V278.84Z" fill="black"/>
<path d="M178.436 297.95V290.93C169.964 291.948 167.102 294.024 167.102 297.255C167.102 300.127 169.051 301.296 171.531 301.296C173.972 301.296 175.988 300.107 178.436 297.95V297.95ZM162.911 297.555C162.911 292.048 167.663 289.295 178.436 288.123C178.426 284.871 177.348 281.739 173.219 281.739C170.295 281.739 167.662 283.124 165.68 284.448L164.007 281.516C166.332 279.99 169.879 278.215 173.935 278.215C180.104 278.215 182.714 282.315 182.714 288.61V304.118H179.18L178.819 301.095H178.678C176.268 303.099 173.455 304.742 170.318 304.742C166.086 304.742 162.911 302.115 162.911 297.555" fill="black"/>
<path d="M195.528 282.325H187.064V278.841H208.27V282.325H199.806V304.118H195.528V282.325Z" fill="black"/>
<path d="M230.287 291.512C230.287 285.719 227.341 281.776 222.993 281.776C218.646 281.776 215.701 285.719 215.701 291.512C215.701 297.304 218.646 301.18 222.993 301.18C227.341 301.18 230.287 297.304 230.287 291.512ZM211.279 291.512C211.279 283.076 216.798 278.215 222.993 278.215C229.19 278.215 234.706 283.076 234.706 291.512C234.706 299.88 229.19 304.742 222.993 304.742C216.798 304.742 211.279 299.88 211.279 291.512Z" fill="black"/>
<path d="M259.056 291.133C259.056 285.555 257.149 281.816 252.392 281.816C250.25 281.816 248.093 282.993 245.636 285.265V298.513C247.922 300.436 250.12 301.143 251.789 301.143C255.972 301.143 259.056 297.376 259.056 291.133ZM241.358 278.84H244.89L245.252 281.759H245.394C247.68 279.859 250.524 278.216 253.453 278.216C259.982 278.216 263.474 283.284 263.474 291.096C263.474 299.712 258.302 304.741 252.528 304.741C250.212 304.741 247.841 303.673 245.52 301.813L245.636 306.225V314.781H241.358V278.84Z" fill="black"/>
<path d="M270.202 278.84H274.363V289.35C274.363 292.03 274.145 295.428 273.965 298.68H274.154C275.098 297.12 276.581 294.812 277.507 293.272L287.066 278.84H291.038V304.118H286.875V293.607C286.875 290.927 287.094 287.547 287.294 284.276H287.086C286.141 285.838 284.677 288.163 283.751 289.686L274.173 304.118H270.202V278.84Z" fill="black"/>
<path d="M313.505 291.028V282.152H309.547C305.585 282.152 303.197 283.449 303.197 286.435C303.197 289.399 305.585 291.028 309.547 291.028H313.505ZM313.505 294.148H308.822C303.853 294.148 298.911 291.915 298.911 286.337C298.911 280.761 303.179 278.84 308.837 278.84H317.782V304.117H313.505V294.148ZM305.871 291.928L309.423 293.203L301.806 304.117H296.969L305.871 291.928Z" fill="black"/>
<path d="M232.741 343.083C232.741 332.075 239.227 325.364 247.887 325.364C252.031 325.364 255.276 327.379 257.273 329.573L254.895 332.401C253.1 330.485 250.843 329.181 247.964 329.181C241.513 329.181 237.227 334.465 237.227 342.968C237.227 351.548 241.323 356.924 247.793 356.924C251.051 356.924 253.525 355.505 255.705 353.092L258.084 355.816C255.388 358.945 252.047 360.741 247.613 360.741C239.112 360.741 232.741 354.167 232.741 343.083Z" fill="black"/>
<path d="M274.573 325.364H278.391V360.741H274.573V325.364ZM277.79 352.516C284.946 352.516 288.91 348.963 288.91 342.931C288.91 336.896 284.946 333.552 277.79 333.552H275.174C268.018 333.552 264.054 336.896 264.054 342.931C264.054 348.963 268.018 352.516 275.174 352.516H277.79ZM259.874 342.931C259.874 334.671 265.694 330.22 275.442 330.22H277.522C287.27 330.22 293.087 334.671 293.087 342.931C293.087 351.189 287.27 355.848 277.522 355.848H275.442C265.694 355.848 259.874 351.189 259.874 342.931Z" fill="black"/>
<path d="M298.987 360.211L299.891 356.327C300.448 356.534 301.054 356.678 302.07 356.678C304.284 356.678 305.539 355.839 306.455 353.909L307.199 352.129L295.562 325.987H300.162L306.53 341.169L309.114 347.895H309.322L311.735 341.169L317.594 325.987H322.003L310.824 353.919C309.115 358.15 306.674 360.741 302.352 360.741C300.846 360.741 299.928 360.562 298.987 360.211Z" fill="black"/>
</svg>
